<svg width="382" height="103" viewBox="0 0 382 103" fill="none" xmlns="http://www.w3.org/2000/svg">
<g filter="url(#filter0_d)">
<rect x="8" y="11" width="352" height="73" fill="white"/>
<path d="M28.3828 60H23.3379V34.793H28.3828V44.8828H38.4551V34.793H43.5V60H38.4551V49.9277H28.3828V60ZM52.4824 60H47.6836V41.1738H48.8438L50.4258 43.4062C51.1992 42.7031 52.0781 42.1641 53.0625 41.7891C54.0469 41.4023 55.0664 41.209 56.1211 41.209H60.3574V45.9902H56.1211C55.6172 45.9902 55.1426 46.084 54.6973 46.2715C54.252 46.459 53.8652 46.7168 53.5371 47.0449C53.209 47.373 52.9512 47.7598 52.7637 48.2051C52.5762 48.6504 52.4824 49.125 52.4824 49.6289V60ZM68.25 36.0586C68.25 36.5039 68.1621 36.9199 67.9863 37.3066C67.8223 37.6934 67.5938 38.0332 67.3008 38.3262C67.0078 38.6074 66.6621 38.8359 66.2637 39.0117C65.877 39.1758 65.4609 39.2578 65.0156 39.2578C64.5703 39.2578 64.1484 39.1758 63.75 39.0117C63.3633 38.8359 63.0234 38.6074 62.7305 38.3262C62.4492 38.0332 62.2207 37.6934 62.0449 37.3066C61.8809 36.9199 61.7988 36.5039 61.7988 36.0586C61.7988 35.625 61.8809 35.2148 62.0449 34.8281C62.2207 34.4297 62.4492 34.0898 62.7305 33.8086C63.0234 33.5156 63.3633 33.2871 63.75 33.123C64.1484 32.9473 64.5703 32.8594 65.0156 32.8594C65.4609 32.8594 65.877 32.9473 66.2637 33.123C66.6621 33.2871 67.0078 33.5156 67.3008 33.8086C67.5938 34.0898 67.8223 34.4297 67.9863 34.8281C68.1621 35.2148 68.25 35.625 68.25 36.0586ZM67.4238 60H62.5898V41.1738H67.4238V60ZM81.4336 60H70.4648V55.2188H81.4336C81.7617 55.2188 82.043 55.1016 82.2773 54.8672C82.5117 54.6328 82.6289 54.3516 82.6289 54.0234C82.6289 53.6836 82.5117 53.4609 82.2773 53.3555C82.043 53.25 81.7617 53.1973 81.4336 53.1973H76.4414C75.6094 53.1973 74.8301 53.0391 74.1035 52.7227C73.377 52.4062 72.7441 51.9785 72.2051 51.4395C71.666 50.8887 71.2383 50.25 70.9219 49.5234C70.6172 48.7969 70.4648 48.0176 70.4648 47.1855C70.4648 46.3535 70.6172 45.5742 70.9219 44.8477C71.2383 44.1211 71.666 43.4883 72.2051 42.9492C72.7441 42.4102 73.377 41.9883 74.1035 41.6836C74.8301 41.3672 75.6094 41.209 76.4414 41.209H86.1621V45.9902H76.4414C76.1133 45.9902 75.832 46.1074 75.5977 46.3418C75.3633 46.5762 75.2461 46.8574 75.2461 47.1855C75.2461 47.5254 75.3633 47.8184 75.5977 48.0645C75.832 48.2988 76.1133 48.416 76.4414 48.416H81.4336C82.2539 48.416 83.0273 48.5566 83.7539 48.8379C84.4805 49.1074 85.1133 49.4883 85.6523 49.9805C86.1914 50.4727 86.6191 51.0645 86.9355 51.7559C87.252 52.4473 87.4102 53.2031 87.4102 54.0234C87.4102 54.8555 87.252 55.6348 86.9355 56.3613C86.6191 57.0762 86.1914 57.709 85.6523 58.2598C85.1133 58.7988 84.4805 59.2266 83.7539 59.543C83.0273 59.8477 82.2539 60 81.4336 60ZM94.7754 60H89.9766V33.6855H94.7754V42C95.3496 41.5664 95.9414 41.2617 96.5508 41.0859C97.1602 40.8984 97.7812 40.8047 98.4141 40.8047C99.5742 40.8047 100.664 41.0273 101.684 41.4727C102.703 41.9062 103.588 42.5098 104.338 43.2832C105.1 44.0449 105.697 44.9414 106.131 45.9727C106.576 46.9922 106.799 48.082 106.799 49.2422V60H101.965V49.2422H102C102 48.75 101.906 48.2871 101.719 47.8535C101.531 47.4082 101.273 47.0215 100.945 46.6934C100.617 46.3652 100.236 46.1074 99.8027 45.9199C99.3691 45.7324 98.9062 45.6387 98.4141 45.6387C97.9102 45.6387 97.4355 45.7324 96.9902 45.9199C96.5449 46.1074 96.1582 46.3652 95.8301 46.6934C95.502 47.0215 95.2441 47.4082 95.0566 47.8535C94.8691 48.2871 94.7754 48.75 94.7754 49.2422V60ZM115.887 36.0586C115.887 36.5039 115.799 36.9199 115.623 37.3066C115.459 37.6934 115.23 38.0332 114.938 38.3262C114.645 38.6074 114.299 38.8359 113.9 39.0117C113.514 39.1758 113.098 39.2578 112.652 39.2578C112.207 39.2578 111.785 39.1758 111.387 39.0117C111 38.8359 110.66 38.6074 110.367 38.3262C110.086 38.0332 109.857 37.6934 109.682 37.3066C109.518 36.9199 109.436 36.5039 109.436 36.0586C109.436 35.625 109.518 35.2148 109.682 34.8281C109.857 34.4297 110.086 34.0898 110.367 33.8086C110.66 33.5156 111 33.2871 111.387 33.123C111.785 32.9473 112.207 32.8594 112.652 32.8594C113.098 32.8594 113.514 32.9473 113.9 33.123C114.299 33.2871 114.645 33.5156 114.938 33.8086C115.23 34.0898 115.459 34.4297 115.623 34.8281C115.799 35.2148 115.887 35.625 115.887 36.0586ZM115.061 60H110.227V41.1738H115.061V60ZM123.568 60H118.734V33.6855H123.568V50.2793L130.723 41.209H136.242L130.002 49.0488L136.242 60H130.723L126.908 53.1621L123.568 57.5918V60ZM145.031 55.3945C145.219 55.4531 145.406 55.4941 145.594 55.5176C145.781 55.5293 145.969 55.5352 146.156 55.5352C146.625 55.5352 147.076 55.4707 147.51 55.3418C147.943 55.2129 148.348 55.0312 148.723 54.7969C149.109 54.5508 149.449 54.2578 149.742 53.918C150.047 53.5664 150.293 53.1797 150.48 52.7578L153.996 56.291C153.551 56.9238 153.035 57.4922 152.449 57.9961C151.875 58.5 151.248 58.9277 150.568 59.2793C149.9 59.6309 149.191 59.8945 148.441 60.0703C147.703 60.2578 146.941 60.3516 146.156 60.3516C144.832 60.3516 143.584 60.1055 142.412 59.6133C141.252 59.1211 140.232 58.4355 139.354 57.5566C138.486 56.6777 137.801 55.6348 137.297 54.4277C136.793 53.209 136.541 51.873 136.541 50.4199C136.541 48.9316 136.793 47.5723 137.297 46.3418C137.801 45.1113 138.486 44.0625 139.354 43.1953C140.232 42.3281 141.252 41.6543 142.412 41.1738C143.584 40.6934 144.832 40.4531 146.156 40.4531C146.941 40.4531 147.709 40.5469 148.459 40.7344C149.209 40.9219 149.918 41.1914 150.586 41.543C151.266 41.8945 151.898 42.3281 152.484 42.8438C153.07 43.3477 153.586 43.916 154.031 44.5488L145.031 55.3945ZM147.492 45.498C147.27 45.416 147.047 45.3633 146.824 45.3398C146.613 45.3164 146.391 45.3047 146.156 45.3047C145.5 45.3047 144.879 45.4277 144.293 45.6738C143.719 45.9082 143.215 46.248 142.781 46.6934C142.359 47.1387 142.025 47.6777 141.779 48.3105C141.533 48.9316 141.41 49.6348 141.41 50.4199C141.41 50.5957 141.416 50.7949 141.428 51.0176C141.451 51.2402 141.48 51.4688 141.516 51.7031C141.562 51.9258 141.615 52.1426 141.674 52.3535C141.732 52.5645 141.809 52.752 141.902 52.916L147.492 45.498ZM166.793 60H155.824V55.2188H166.793C167.121 55.2188 167.402 55.1016 167.637 54.8672C167.871 54.6328 167.988 54.3516 167.988 54.0234C167.988 53.6836 167.871 53.4609 167.637 53.3555C167.402 53.25 167.121 53.1973 166.793 53.1973H161.801C160.969 53.1973 160.189 53.0391 159.463 52.7227C158.736 52.4062 158.104 51.9785 157.564 51.4395C157.025 50.8887 156.598 50.25 156.281 49.5234C155.977 48.7969 155.824 48.0176 155.824 47.1855C155.824 46.3535 155.977 45.5742 156.281 44.8477C156.598 44.1211 157.025 43.4883 157.564 42.9492C158.104 42.4102 158.736 41.9883 159.463 41.6836C160.189 41.3672 160.969 41.209 161.801 41.209H171.521V45.9902H161.801C161.473 45.9902 161.191 46.1074 160.957 46.3418C160.723 46.5762 160.605 46.8574 160.605 47.1855C160.605 47.5254 160.723 47.8184 160.957 48.0645C161.191 48.2988 161.473 48.416 161.801 48.416H166.793C167.613 48.416 168.387 48.5566 169.113 48.8379C169.84 49.1074 170.473 49.4883 171.012 49.9805C171.551 50.4727 171.979 51.0645 172.295 51.7559C172.611 52.4473 172.77 53.2031 172.77 54.0234C172.77 54.8555 172.611 55.6348 172.295 56.3613C171.979 57.0762 171.551 57.709 171.012 58.2598C170.473 58.7988 169.84 59.2266 169.113 59.543C168.387 59.8477 167.613 60 166.793 60ZM180.135 60H175.336V33.6855H180.135V42C180.709 41.5664 181.301 41.2617 181.91 41.0859C182.52 40.8984 183.141 40.8047 183.773 40.8047C184.934 40.8047 186.023 41.0273 187.043 41.4727C188.062 41.9062 188.947 42.5098 189.697 43.2832C190.459 44.0449 191.057 44.9414 191.49 45.9727C191.936 46.9922 192.158 48.082 192.158 49.2422V60H187.324V49.2422H187.359C187.359 48.75 187.266 48.2871 187.078 47.8535C186.891 47.4082 186.633 47.0215 186.305 46.6934C185.977 46.3652 185.596 46.1074 185.162 45.9199C184.729 45.7324 184.266 45.6387 183.773 45.6387C183.27 45.6387 182.795 45.7324 182.35 45.9199C181.904 46.1074 181.518 46.3652 181.189 46.6934C180.861 47.0215 180.604 47.4082 180.416 47.8535C180.229 48.2871 180.135 48.75 180.135 49.2422V60ZM211.898 63.6035V68.3848H197.15V63.6035H211.898Z" fill="black"/>
<path d="M237.809 52.4414C237.809 53.4844 237.609 54.4629 237.211 55.377C236.812 56.291 236.268 57.0938 235.576 57.7852C234.896 58.4648 234.1 59.0039 233.186 59.4023C232.271 59.8008 231.293 60 230.25 60H217.646V34.793H230.25C231.293 34.793 232.271 34.9922 233.186 35.3906C234.1 35.7891 234.896 36.334 235.576 37.0254C236.268 37.7051 236.812 38.502 237.211 39.416C237.609 40.3301 237.809 41.3086 237.809 42.3516C237.809 42.8203 237.744 43.3008 237.615 43.793C237.486 44.2852 237.305 44.7598 237.07 45.2168C236.836 45.6738 236.555 46.0898 236.227 46.4648C235.898 46.8398 235.535 47.1504 235.137 47.3965C235.547 47.6191 235.916 47.9238 236.244 48.3105C236.572 48.6855 236.854 49.1016 237.088 49.5586C237.322 50.0156 237.498 50.4961 237.615 51C237.744 51.4922 237.809 51.9727 237.809 52.4414ZM222.691 54.9551H230.25C230.602 54.9551 230.93 54.8906 231.234 54.7617C231.539 54.6328 231.803 54.457 232.025 54.2344C232.26 54 232.441 53.7305 232.57 53.4258C232.699 53.1211 232.764 52.793 232.764 52.4414C232.764 52.0898 232.699 51.7617 232.57 51.457C232.441 51.1523 232.26 50.8887 232.025 50.666C231.803 50.4316 231.539 50.25 231.234 50.1211C230.93 49.9922 230.602 49.9277 230.25 49.9277H222.691V54.9551ZM222.691 44.8828H230.25C230.602 44.8828 230.93 44.8184 231.234 44.6895C231.539 44.5605 231.803 44.3848 232.025 44.1621C232.26 43.9277 232.441 43.6582 232.57 43.3535C232.699 43.0371 232.764 42.7031 232.764 42.3516C232.764 42 232.699 41.6719 232.57 41.3672C232.441 41.0625 232.26 40.7988 232.025 40.5762C231.803 40.3418 231.539 40.1602 231.234 40.0312C230.93 39.9023 230.602 39.8379 230.25 39.8379H222.691V44.8828ZM245.912 60H241.113V33.6855H245.912V42C246.486 41.5664 247.078 41.2617 247.688 41.0859C248.297 40.8984 248.918 40.8047 249.551 40.8047C250.711 40.8047 251.801 41.0273 252.82 41.4727C253.84 41.9062 254.725 42.5098 255.475 43.2832C256.236 44.0449 256.834 44.9414 257.268 45.9727C257.713 46.9922 257.936 48.082 257.936 49.2422V60H253.102V49.2422H253.137C253.137 48.75 253.043 48.2871 252.855 47.8535C252.668 47.4082 252.41 47.0215 252.082 46.6934C251.754 46.3652 251.373 46.1074 250.939 45.9199C250.506 45.7324 250.043 45.6387 249.551 45.6387C249.047 45.6387 248.572 45.7324 248.127 45.9199C247.682 46.1074 247.295 46.3652 246.967 46.6934C246.639 47.0215 246.381 47.4082 246.193 47.8535C246.006 48.2871 245.912 48.75 245.912 49.2422V60ZM279.592 60H278.432L276.568 57.416C276.111 57.8262 275.625 58.2129 275.109 58.5762C274.605 58.9277 274.072 59.2383 273.51 59.5078C272.947 59.7656 272.367 59.9707 271.77 60.123C271.184 60.2754 270.586 60.3516 269.977 60.3516C268.652 60.3516 267.404 60.1289 266.232 59.6836C265.072 59.2383 264.053 58.5938 263.174 57.75C262.307 56.8945 261.621 55.8516 261.117 54.6211C260.613 53.3906 260.361 51.9902 260.361 50.4199C260.361 48.9551 260.613 47.6133 261.117 46.3945C261.621 45.1641 262.307 44.1094 263.174 43.2305C264.053 42.3516 265.072 41.6719 266.232 41.1914C267.404 40.6992 268.652 40.4531 269.977 40.4531C270.586 40.4531 271.189 40.5293 271.787 40.6816C272.385 40.834 272.965 41.0449 273.527 41.3145C274.09 41.584 274.623 41.9004 275.127 42.2637C275.643 42.627 276.123 43.0195 276.568 43.4414L278.432 41.209H279.592V60ZM274.758 50.4199C274.758 49.7637 274.629 49.1309 274.371 48.5215C274.125 47.9004 273.785 47.3555 273.352 46.8867C272.918 46.4062 272.408 46.0254 271.822 45.7441C271.248 45.4512 270.633 45.3047 269.977 45.3047C269.32 45.3047 268.699 45.416 268.113 45.6387C267.539 45.8613 267.035 46.1895 266.602 46.623C266.18 47.0566 265.846 47.5957 265.6 48.2402C265.354 48.873 265.23 49.5996 265.23 50.4199C265.23 51.2402 265.354 51.9727 265.6 52.6172C265.846 53.25 266.18 53.7832 266.602 54.2168C267.035 54.6504 267.539 54.9785 268.113 55.2012C268.699 55.4238 269.32 55.5352 269.977 55.5352C270.633 55.5352 271.248 55.3945 271.822 55.1133C272.408 54.8203 272.918 54.4395 273.352 53.9707C273.785 53.4902 274.125 52.9453 274.371 52.3359C274.629 51.7148 274.758 51.0762 274.758 50.4199ZM296.66 50.4199C296.66 49.7637 296.531 49.1309 296.273 48.5215C296.027 47.9004 295.688 47.3555 295.254 46.8867C294.82 46.4062 294.311 46.0254 293.725 45.7441C293.15 45.4512 292.535 45.3047 291.879 45.3047C291.223 45.3047 290.602 45.416 290.016 45.6387C289.441 45.8613 288.938 46.1895 288.504 46.623C288.082 47.0566 287.748 47.5957 287.502 48.2402C287.256 48.873 287.133 49.5996 287.133 50.4199C287.133 51.2051 287.256 51.9141 287.502 52.5469C287.748 53.168 288.082 53.7012 288.504 54.1465C288.938 54.5918 289.441 54.9375 290.016 55.1836C290.602 55.418 291.223 55.5352 291.879 55.5352C292.535 55.5352 293.15 55.3945 293.725 55.1133C294.311 54.8203 294.82 54.4395 295.254 53.9707C295.688 53.4902 296.027 52.9453 296.273 52.3359C296.531 51.7148 296.66 51.0762 296.66 50.4199ZM301.494 57.627C301.494 58.9512 301.242 60.1934 300.738 61.3535C300.234 62.5137 299.543 63.5273 298.664 64.3945C297.797 65.2617 296.777 65.9473 295.605 66.4512C294.445 66.9551 293.203 67.207 291.879 67.207L289.471 67.1719V62.373L291.844 62.4082C292.594 62.4082 293.232 62.3086 293.76 62.1094C294.287 61.9219 294.732 61.6582 295.096 61.3184C295.459 60.9902 295.746 60.6094 295.957 60.1758C296.18 59.7422 296.355 59.2852 296.484 58.8047C296.297 59.1094 296.027 59.3613 295.676 59.5605C295.324 59.748 294.932 59.9004 294.498 60.0176C294.076 60.1465 293.631 60.2344 293.162 60.2812C292.705 60.3281 292.277 60.3516 291.879 60.3516C290.555 60.3516 289.307 60.123 288.135 59.666C286.975 59.209 285.955 58.5586 285.076 57.7148C284.209 56.8594 283.523 55.8164 283.02 54.5859C282.516 53.3555 282.264 51.9668 282.264 50.4199C282.264 49.002 282.516 47.6836 283.02 46.4648C283.523 45.2461 284.209 44.1914 285.076 43.3008C285.955 42.4102 286.975 41.7129 288.135 41.209C289.307 40.7051 290.555 40.4531 291.879 40.4531C292.488 40.4531 293.092 40.5293 293.689 40.6816C294.287 40.834 294.867 41.0449 295.43 41.3145C295.992 41.584 296.525 41.9004 297.029 42.2637C297.545 42.627 298.025 43.0195 298.471 43.4414L300.334 41.209H301.494V57.627ZM323.396 60H322.236L320.373 57.416C319.916 57.8262 319.43 58.2129 318.914 58.5762C318.41 58.9277 317.877 59.2383 317.314 59.5078C316.752 59.7656 316.172 59.9707 315.574 60.123C314.988 60.2754 314.391 60.3516 313.781 60.3516C312.457 60.3516 311.209 60.1289 310.037 59.6836C308.877 59.2383 307.857 58.5938 306.979 57.75C306.111 56.8945 305.426 55.8516 304.922 54.6211C304.418 53.3906 304.166 51.9902 304.166 50.4199C304.166 48.9551 304.418 47.6133 304.922 46.3945C305.426 45.1641 306.111 44.1094 306.979 43.2305C307.857 42.3516 308.877 41.6719 310.037 41.1914C311.209 40.6992 312.457 40.4531 313.781 40.4531C314.391 40.4531 314.994 40.5293 315.592 40.6816C316.189 40.834 316.77 41.0449 317.332 41.3145C317.895 41.584 318.428 41.9004 318.932 42.2637C319.447 42.627 319.928 43.0195 320.373 43.4414L322.236 41.209H323.396V60ZM318.562 50.4199C318.562 49.7637 318.434 49.1309 318.176 48.5215C317.93 47.9004 317.59 47.3555 317.156 46.8867C316.723 46.4062 316.213 46.0254 315.627 45.7441C315.053 45.4512 314.438 45.3047 313.781 45.3047C313.125 45.3047 312.504 45.416 311.918 45.6387C311.344 45.8613 310.84 46.1895 310.406 46.623C309.984 47.0566 309.65 47.5957 309.404 48.2402C309.158 48.873 309.035 49.5996 309.035 50.4199C309.035 51.2402 309.158 51.9727 309.404 52.6172C309.65 53.25 309.984 53.7832 310.406 54.2168C310.84 54.6504 311.344 54.9785 311.918 55.2012C312.504 55.4238 313.125 55.5352 313.781 55.5352C314.438 55.5352 315.053 55.3945 315.627 55.1133C316.213 54.8203 316.723 54.4395 317.156 53.9707C317.59 53.4902 317.93 52.9453 318.176 52.3359C318.434 51.7148 318.562 51.0762 318.562 50.4199ZM336.51 60C335.35 60 334.26 59.7832 333.24 59.3496C332.221 58.9043 331.324 58.3008 330.551 57.5391C329.789 56.7656 329.186 55.8691 328.74 54.8496C328.307 53.8301 328.09 52.7402 328.09 51.5801V45.9902H325.752V41.209H328.09V33.6855H332.871V41.209H340.148V45.9902H332.871V51.5801C332.871 52.084 332.965 52.5586 333.152 53.0039C333.34 53.4375 333.598 53.8184 333.926 54.1465C334.254 54.4746 334.641 54.7383 335.086 54.9375C335.531 55.125 336.006 55.2188 336.51 55.2188H340.148V60H336.51Z" fill="#358DBE"/>
</g>
<defs>
<filter id="filter0_d" x="0" y="0" width="382" height="103" filterUnits="userSpaceOnUse" color-interpolation-filters="sRGB">
<feFlood flood-opacity="0" result="BackgroundImageFix"/>
<feColorMatrix in="SourceAlpha" type="matrix" values="0 0 0 0 0 0 0 0 0 0 0 0 0 0 0 0 0 0 127 0" result="hardAlpha"/>
<feOffset dx="7" dy="4"/>
<feGaussianBlur stdDeviation="7.5"/>
<feComposite in2="hardAlpha" operator="out"/>
<feColorMatrix type="matrix" values="0 0 0 0 0 0 0 0 0 0 0 0 0 0 0 0 0 0 0.25 0"/>
<feBlend mode="normal" in2="BackgroundImageFix" result="effect1_dropShadow"/>
<feBlend mode="normal" in="SourceGraphic" in2="effect1_dropShadow" result="shape"/>
</filter>
</defs>
</svg>
